<svg width="210" height="162" viewBox="0 0 210 162" fill="none" xmlns="http://www.w3.org/2000/svg">
<g clip-path="url(#clip0_701_3824)">
<path d="M0 0H210V162H0V0Z" fill="#FAD76E"/>
<ellipse opacity="0.1" cx="111.811" cy="130.953" rx="62.1314" ry="15.0474" fill="black"/>
<path fill-rule="evenodd" clip-rule="evenodd" d="M156.985 34.3348C156.985 39.3706 154.987 44.2005 151.432 47.7633C147.876 51.3262 143.053 53.3306 138.022 53.3362C132.994 53.3306 128.174 51.3291 124.619 47.7708C121.064 44.2125 119.064 39.3881 119.058 34.3559C119.065 29.3245 121.065 24.5011 124.62 20.9437C128.175 17.3864 132.995 15.3855 138.022 15.3799C143.045 15.3855 147.861 17.3835 151.415 20.9363C154.97 24.4891 156.972 29.307 156.985 34.3348Z" fill="#FFFDF2"/>
<path opacity="0.15" fill-rule="evenodd" clip-rule="evenodd" d="M149.858 19.5127C151.574 22.4241 152.48 25.7426 152.482 29.1232C152.474 34.1575 150.47 38.983 146.911 42.54C143.352 46.0971 138.527 48.095 133.498 48.095C129.203 48.0971 125.036 46.6329 121.685 43.9442C123.358 46.7977 125.747 49.1637 128.615 50.8073C131.484 52.451 134.732 53.3151 138.037 53.314C143.065 53.3084 147.885 51.3069 151.44 47.7486C154.995 44.1904 156.995 39.3659 157 34.3338C157 31.4848 156.357 28.6727 155.12 26.1066C153.884 23.5406 152.085 21.2867 149.858 19.5127Z" fill="#282B51"/>
<path fill-rule="evenodd" clip-rule="evenodd" d="M127.657 26.314L129.973 28.666C130.244 28.9448 130.594 29.1345 130.975 29.21C131.356 29.2854 131.751 29.2429 132.108 29.0882L137.301 26.808C137.646 26.6553 137.939 26.4046 138.143 26.0872C138.346 25.7697 138.453 25.3993 138.449 25.0219L138.394 21.5848C138.389 21.1136 138.21 20.6611 137.891 20.3142C137.573 19.9673 137.137 19.7506 136.668 19.7058L132.108 19.2582C131.783 19.2272 131.455 19.2796 131.155 19.4103C130.855 19.541 130.594 19.7459 130.395 20.0056L127.497 23.8058C127.218 24.1735 127.081 24.6292 127.11 25.0898C127.14 25.5503 127.334 25.9849 127.657 26.314Z" fill="#384F66"/>
<path fill-rule="evenodd" clip-rule="evenodd" d="M143.724 16.2319L144.108 17.1904C144.365 17.8299 144.796 18.3843 145.353 18.7908L149.993 22.1688C150.607 22.6158 151.343 22.8634 152.103 22.8782H153.161C150.782 19.7349 147.484 17.4118 143.724 16.2319Z" fill="#384F66"/>
<path fill-rule="evenodd" clip-rule="evenodd" d="M119.496 38.3823L119.998 37.7996C120.505 37.2065 120.811 36.467 120.871 35.6883L121.293 29.9963C121.349 29.2607 121.183 28.525 120.816 27.8851L120.428 27.2095C119.514 29.4716 119.044 31.8887 119.044 34.3287C119.05 35.6921 119.201 37.051 119.496 38.3823Z" fill="#384F66"/>
<path fill-rule="evenodd" clip-rule="evenodd" d="M150.793 48.3441L149.333 48.2934C148.766 48.2751 148.203 48.3878 147.688 48.6228L142.477 50.9916C141.888 51.2583 141.379 51.6747 141.001 52.1993L140.326 53.162C144.231 52.6857 147.89 51.0014 150.793 48.3441Z" fill="#29354D"/>
<path fill-rule="evenodd" clip-rule="evenodd" d="M146.486 30.6881L149.659 29.6536C150.102 29.5081 150.582 29.5295 151.01 29.7138C151.438 29.8981 151.784 30.2326 151.983 30.6543L153.835 34.5771C153.976 34.8747 154.038 35.2037 154.015 35.5323C153.991 35.8608 153.883 36.1776 153.7 36.4519L150.946 40.6195C150.683 41.0167 150.282 41.3018 149.821 41.4189C149.36 41.536 148.872 41.4768 148.452 41.2529L145.655 39.7623C145.322 39.5849 145.048 39.3126 144.868 38.9797C144.689 38.6469 144.612 38.2683 144.647 37.8918L145.174 32.3307C145.21 31.9589 145.353 31.6055 145.586 31.3138C145.819 31.0221 146.132 30.8046 146.486 30.6881Z" fill="#29354D"/>
<path fill-rule="evenodd" clip-rule="evenodd" d="M125.848 42.7551L127.835 46.8298C127.973 47.1105 128.177 47.3534 128.43 47.5373C128.683 47.7213 128.977 47.8407 129.286 47.8855L134.167 48.5737C134.654 48.6431 135.15 48.5215 135.55 48.2344C135.95 47.9473 136.224 47.5168 136.314 47.0325L136.871 44.0852C136.937 43.7302 136.902 43.3639 136.77 43.0279C136.638 42.6919 136.414 42.3998 136.125 42.185L131.265 38.6001C130.944 38.3625 130.557 38.2314 130.158 38.2253C129.76 38.2193 129.369 38.3385 129.041 38.5663L126.481 40.3314C126.103 40.5928 125.831 40.9811 125.715 41.4258C125.599 41.8705 125.646 42.3421 125.848 42.7551Z" fill="#384F66"/>
<path d="M95.8008 68.7377L95.7992 68.7372L82.6539 41.355C83.9129 41.7754 85.1159 42.1191 86.2864 42.385C86.2967 42.3871 86.3069 42.3893 86.3172 42.3916C88.239 42.8261 90.0738 43.0506 91.9258 43.0604C92.0134 43.0609 92.1009 43.0609 92.1886 43.0604C99.1226 43.0206 106.368 39.9743 119.385 33.6775C123.284 31.7915 126.611 31.0444 129.435 31.0449C140.131 31.046 143.618 41.7707 143.681 41.9661L143.684 41.9751L143.685 41.9804C150.113 61.3827 154.081 72.291 161.301 84.1366C162.058 85.3787 161.076 87.1147 159.683 87.0494C155.851 86.8697 149.692 87.0761 144.549 89.5312C140.979 91.2359 137.719 94.3191 134.489 97.3741C130.632 101.022 126.818 104.63 122.568 105.802C118.272 106.986 115.954 107.128 114.901 107.096C114.44 107.081 114.06 106.773 113.851 106.337L95.8008 68.7377Z" fill="#AB2B1F"/>
<path fill-rule="evenodd" clip-rule="evenodd" d="M95.7953 68.738L95.7969 68.7384L103.152 84.0589C105.361 85.82 110.328 88.661 117.745 86.6273C122.91 85.2111 125.818 82.6209 128.886 79.8882C131.95 77.1586 135.174 74.2867 140.966 72.3003C146.385 70.4423 151.044 70.5589 154.471 71.2101C151.406 64.4428 148.696 56.9391 145.41 47.1662C141.676 46.7761 136.418 46.6433 131.485 47.9775C126.824 49.2382 122.009 51.9465 117.472 54.4989C113.275 56.8597 109.315 59.0871 105.933 59.9119C98.8964 61.6284 90.826 58.1845 90.826 58.1845L92.1299 61.1029L95.7953 68.738Z" fill="#EFB23C"/>
<path d="M84.1008 41.6601C72.6798 25.1632 59.7722 27.438 38.0528 36.7648C37.2767 37.0981 36.8746 38.0183 37.1404 38.8608L59.6283 110.154C59.9882 111.295 61.3185 111.705 62.1986 110.946C69.0463 105.042 93.4716 85.4068 104.057 95.9783C108.761 100.676 108.171 105.373 113.682 106.847C114.05 106.946 114.376 106.588 114.291 106.194C110.892 90.3709 107.645 78.9637 84.1008 41.6601Z" fill="#EB3929"/>
<path fill-rule="evenodd" clip-rule="evenodd" d="M92.0927 54.62C87.5813 49.9893 81.2334 45.331 74.5415 45.3311C64.9979 45.3311 50.0396 51.1148 42.3284 55.3114L54.6925 94.5093C55.262 94.1377 55.8537 93.7499 56.4655 93.3489C65.7463 87.2661 79.6444 78.157 90.5715 76.6281C98.909 75.4615 103.801 79.3993 107.998 84.9191C104.863 77.2674 100.091 67.9529 92.0927 54.62Z" fill="#FFE453"/>
<path d="M80.7637 55.7817C75.9021 56.106 72.6666 57.0623 67.9627 59.307C66.9997 59.7666 66.5627 60.8918 66.9391 61.8902L72.8066 77.455C73.2503 78.632 74.6273 79.1472 75.7433 78.567C79.8447 76.4347 82.5567 75.2939 86.9009 74.575C88.2564 74.3507 89.1041 72.946 88.5958 71.6695L82.7838 57.0743C82.4568 56.2532 81.6456 55.7228 80.7637 55.7817Z" fill="#EB3929"/>
<path d="M85.8889 64.8668L82.7688 57.0314C82.4511 56.2335 81.6996 55.7233 80.8847 55.7757C78.1984 55.9483 76.0107 56.3102 73.8081 56.9704L77.3058 66.4788C77.5089 67.0287 77.812 67.0764 78.3299 66.8601C80.9162 65.78 83.4158 65.1821 85.8889 64.8668Z" fill="#FFFAFA"/>
<path d="M81.5611 75.9221L78.2921 67.1734C78.1245 66.7288 77.8575 66.6316 77.4118 66.7064C74.1904 67.2468 71.5636 68.7081 69.9325 69.8377L72.8505 77.5685C73.2779 78.7022 74.5289 79.2016 75.5616 78.6628C77.8253 77.4817 79.6608 76.5991 81.5611 75.9221Z" fill="#C73C30"/>
<path d="M77.032 66.7734C76.7007 66.8373 76.3761 66.9106 76.0586 66.992L79.7303 76.6413C80.0365 76.51 80.3403 76.3847 80.6437 76.2651L77.032 66.7734Z" fill="#FFE453"/>
<path d="M78.9442 76.989L75.2296 67.2269C74.9095 67.3264 74.5976 67.4334 74.2946 67.5462L78.0474 77.4087C78.3512 77.2629 78.6495 77.1231 78.9442 76.989Z" fill="#FFE453"/>
<path d="M77.2727 77.7875L73.4969 67.8645C73.1856 67.9971 72.8853 68.1348 72.5967 68.2755L76.3864 78.235C76.6885 78.0803 76.9835 77.9312 77.2727 77.7875Z" fill="#FFE453"/>
<path d="M75.6193 78.6315L71.8291 68.6706C71.5236 68.8362 71.2342 69.0033 70.962 69.1685L74.6568 78.8785C74.9603 78.8831 75.2699 78.8137 75.5621 78.6613C75.5812 78.6513 75.6003 78.6414 75.6193 78.6315Z" fill="#FFE453"/>
<path d="M150.893 90.6616C150.887 90.5419 150.921 90.4236 150.989 90.3268C151.057 90.23 151.155 90.1605 151.266 90.1302C151.378 90.0999 151.496 90.1105 151.601 90.1604C151.706 90.2102 151.791 90.2962 151.842 90.4037C151.842 90.4037 155.905 92.3187 157.763 96.0016C161.155 102.698 157.763 121.053 157.763 121.053C157.763 121.053 159.173 104.302 154.931 98.0617C153.809 96.4102 151.302 98.5297 151.302 98.5297C151.211 95.9055 151.054 93.2632 150.893 90.6616Z" fill="#552D24"/>
<path d="M155.889 118.167C155.953 115.163 158.406 112.203 158.406 112.203C158.406 112.203 160.868 113.444 161.469 116.361C162.071 119.279 161.344 122.261 160.868 122.325C160.686 122.35 160.531 122.115 160.409 121.815C160.296 121.538 159.814 121.509 159.705 121.788C159.348 122.698 158.819 123.843 158.406 123.857C157.718 123.881 155.824 121.17 155.889 118.167Z" fill="#552D24"/>
<path d="M145.547 128.893L146.191 120.839C146.245 120.165 146.168 119.487 145.965 118.844L143.92 112.369L141.936 113.451C132.164 106.026 134.018 95.9365 134.901 92.783C132.06 92.025 129.131 91.6854 126.199 91.774C126.199 91.774 121.243 104.366 132.664 113.283C141.536 120.165 141.227 123.45 141.227 123.45V128.784C141.228 128.912 141.201 129.038 141.148 129.153C141.095 129.268 141.018 129.37 140.922 129.449L139.413 130.689L141.8 132.676L144.199 130.689L145.339 129.386C145.459 129.25 145.533 129.077 145.547 128.893Z" fill="#552D24"/>
<path d="M103.25 117.22C103.25 117.22 97.8549 116.455 99.7954 105.076L92.9253 92.86C89.9932 92.0428 86.9617 91.677 83.9276 91.7741L96.3451 113.179C98.058 116.141 98.9606 119.533 98.9556 122.988V128.617C98.9554 128.797 98.9162 128.975 98.8408 129.137C98.7655 129.299 98.656 129.441 98.5205 129.554L97.1544 130.689L99.6456 132.521L101.919 130.689L102.915 129.658C103.13 129.431 103.25 129.125 103.25 128.807V117.22Z" fill="#552D24"/>
<path d="M154.03 120.425L155.666 125.049C155.844 125.549 155.898 126.087 155.822 126.615L154.6 135.27C154.568 135.506 154.462 135.726 154.299 135.894L153.22 137.016L150.604 139.293L148.469 137.016C149.039 136.537 149.544 136.111 149.87 135.849C149.994 135.746 150.094 135.615 150.163 135.466C150.231 135.317 150.267 135.154 150.266 134.989V130.012C150.267 129.182 149.955 128.384 149.396 127.791L141.704 115.378L141.486 115.211L141.443 115.179C140.705 114.615 139.815 114.308 138.9 114.301C137.984 114.293 137.09 114.586 136.344 115.138C135.238 115.947 134.183 116.739 133.191 117.498C127.617 121.768 120.904 124.447 113.884 124.588C113.279 124.601 112.704 124.859 112.281 125.309C111.858 125.758 111.621 126.361 111.621 126.99V135.27C111.621 135.393 111.598 135.514 111.552 135.628C111.507 135.741 111.44 135.844 111.356 135.93L110.29 137.039L108.662 138.962L104.183 138.251L105.539 137.039C106.087 136.586 106.566 136.193 106.888 135.921C107.025 135.812 107.128 135.662 107.183 135.491C107.238 135.32 107.243 135.136 107.196 134.962L105.674 128.755C105.373 127.585 104.795 126.512 103.992 125.635C103.189 124.757 102.188 124.103 101.079 123.732C96.9849 122.304 93.4902 119.449 91.1851 115.652C87.0909 108.901 82.2092 100.897 82.0047 100.757L70.9186 100.925L65.6975 92.2149C65.6975 92.2149 67.4248 85.2228 73.9207 79.7934C81.107 73.787 86.5938 81.6603 86.5938 81.6603C86.5938 81.6603 88.3309 84.9938 89.1228 85.6454C89.7749 85.9765 90.4609 86.23 91.1677 86.4009C96.3917 87.9306 101.796 88.6936 107.223 88.6677H122.225C125.886 88.6718 129.509 87.9021 132.876 86.4055C134.926 85.4425 137.152 84.9502 139.402 84.9622C139.937 84.9622 141.538 85.0436 143.483 85.1522C144.837 85.2267 146.164 85.5789 147.387 86.1884C148.61 86.798 149.705 87.653 150.609 88.7042C151.513 89.7553 152.209 90.982 152.655 92.3136C153.102 93.6452 153.291 95.0555 153.212 96.4634C152.959 100.825 152.668 105.349 152.45 107.562C152.025 111.919 152.565 116.319 154.03 120.425Z" fill="#764D36"/>
<ellipse cx="5.81555" cy="4.39644" rx="5.81555" ry="4.39644" transform="matrix(-0.790192 -0.61286 -0.61286 0.790192 151.601 92.54)" fill="#955F49"/>
<path d="M108.145 140.957C109.912 140.957 109.189 138.161 110.321 137.025C109.138 137.887 106.624 137.882 105.569 137.025C104.699 137.753 103.664 138.636 102.815 139.378C102.685 139.499 102.593 139.658 102.551 139.834C102.509 140.01 102.519 140.195 102.579 140.366C102.64 140.536 102.748 140.683 102.89 140.789C103.033 140.894 103.202 140.953 103.376 140.957H108.145Z" fill="#333333"/>
<path d="M71.5833 100.906C70.3732 101.07 69.1524 101.13 67.9328 101.087C65.1439 101.087 62.2288 98.7294 62.2288 96.25C62.2288 93.7706 64.513 92.1463 67.302 91.7798C71.4223 91.2504 71.5833 100.906 71.5833 100.906Z" fill="#7E7E7C"/>
<path d="M68.13 95.9284C67.8602 96.3039 66.8247 97.5527 66.494 97.2857C66.1634 97.0188 66.6376 95.2904 66.9291 94.9375C66.9893 94.846 67.0671 94.7684 67.1575 94.7096C67.2479 94.6508 67.349 94.612 67.4544 94.5957C67.5599 94.5794 67.6675 94.5859 67.7704 94.6148C67.8734 94.6438 67.9694 94.6945 68.0526 94.7638C68.1358 94.8332 68.2044 94.9196 68.254 95.0178C68.3035 95.116 68.3331 95.2237 68.3408 95.3343C68.3484 95.4449 68.3341 95.556 68.2985 95.6606C68.263 95.7651 68.2071 95.8609 68.1343 95.942L68.13 95.9284Z" fill="#050505"/>
<path d="M79.8084 87.7616C79.8096 87.934 79.7777 88.105 79.7147 88.2644C79.6516 88.4239 79.5587 88.5687 79.4412 88.6905C79.3237 88.8122 79.1842 88.9084 79.0306 88.9734C78.877 89.0384 78.7125 89.071 78.5467 89.0692C78.3804 89.0703 78.2155 89.0375 78.0615 88.9724C77.9074 88.9073 77.7672 88.8113 77.6488 88.6899C77.5305 88.5685 77.4362 88.424 77.3716 88.2647C77.3069 88.1055 77.273 87.9345 77.2719 87.7616C77.2741 87.4111 77.4093 87.0758 77.648 86.8284C77.8867 86.581 78.2097 86.4416 78.5467 86.4404C78.7129 86.441 78.8775 86.4757 79.0309 86.5424C79.1843 86.6091 79.3235 86.7066 79.4407 86.8293C79.5578 86.9519 79.6506 87.0974 79.7137 87.2574C79.7768 87.4173 79.809 87.5887 79.8084 87.7616Z" fill="#050505"/>
<path d="M67.682 79.2406C65.7414 79.4433 64.3036 80.8534 64.4538 82.3981C64.604 83.9428 66.3 85.0111 68.2375 84.8052C70.175 84.5992 75.128 82.8203 74.984 81.2884C74.84 79.7564 69.6257 79.041 67.6851 79.2437L67.682 79.2406Z" fill="#552D24"/>
<path d="M62.8793 72.6626C63.0633 71.7416 64.3007 71.8203 64.5399 72.7285C64.8726 73.9916 65.3317 75.3278 65.9324 76.2301C67.073 77.9245 73.0854 77.5642 73.5742 77.5642C75.0407 77.5642 76.1813 78.5808 76.1813 80.1058C76.1813 81.6308 75.0407 82.8168 73.7372 82.8168C72.2707 82.8168 65.916 83.0431 63.4719 79.3154C62.2571 77.601 62.4415 74.8552 62.8793 72.6626Z" fill="#EFDDD7"/>
<path d="M66.9693 89.4403L71.1006 81.7827C71.7352 80.563 73.8222 78.9134 74.99 78.2437C76.1578 77.5739 78.0852 77.4712 79.4159 77.5638L79.6338 77.9125C84.7157 78.1659 84.0945 80.6899 84.2686 84.3502L84.4774 88.8114C84.6135 91.6886 84.0588 94.5559 82.8632 97.1545L82.2541 98.4711C81.2498 100.651 80.9681 99.5129 79.0011 100.801C77.0341 102.089 74.3971 104.777 72.0726 104.777C68.808 104.774 64.7428 104.398 62.4357 101.996L62.2399 101.797C61.2689 100.787 60.6347 99.4803 60.4303 98.0683C60.2259 96.6563 60.4621 95.2133 61.1043 93.9512L61.2087 93.7476C61.4985 93.179 61.9102 92.6875 62.4119 92.3109C62.9136 91.9343 63.4919 91.6828 64.1021 91.5758C64.7045 91.4696 65.2758 91.2221 65.7726 90.8521C66.2694 90.482 66.6787 89.9992 66.9693 89.4403Z" fill="#764D36"/>
<path d="M72.4395 75.7407C72.6234 74.8197 73.8609 74.8984 74.1001 75.8066C74.4328 77.0698 74.8919 78.4059 75.4926 79.3082C76.6332 81.0027 82.6456 80.6423 83.1344 80.6423C84.6009 80.6423 85.7415 81.6589 85.7415 83.1839C85.7415 84.7089 84.6009 85.895 83.2973 85.895C81.8309 85.895 75.4762 86.1212 73.0321 82.3935C71.8173 80.6791 72.0017 77.9333 72.4395 75.7407Z" fill="#FDF8F6"/>
<path d="M87.4958 82.3889C89.4401 82.2312 91.1086 83.3599 91.2081 84.9081C91.3076 86.4563 89.8308 87.8163 87.8951 87.9755C85.9594 88.1348 80.7782 87.2941 80.6593 85.7561C80.5404 84.2181 85.5501 82.5556 87.4913 82.4157L87.4958 82.3889Z" fill="#7B4A35"/>
<path d="M77.0962 101.995C76.3618 103.123 72.4778 105.55 70.1526 105.549C66.8879 105.547 64.7501 104.397 62.443 101.995L62.2472 101.796C61.2762 100.786 60.6419 99.4797 60.4376 98.0677C60.2332 96.6556 60.4694 95.2127 61.1116 93.9505L61.216 93.7469C61.5058 93.1784 61.9174 92.6868 62.4192 92.3102C62.9209 91.9336 63.4992 91.6821 64.1094 91.5752C79.3114 92.091 77.0962 101.995 77.0962 101.995Z" fill="#AC4B44"/>
<path d="M69.4113 96.7522C69.4898 97.0131 69.5084 97.2894 69.4656 97.5591C69.4229 97.8287 69.32 98.0843 69.1651 98.3051C68.7991 98.8384 68.2787 99.236 67.68 99.4399C67.0319 99.6925 66.3178 99.6925 65.6698 99.4399C65.4505 99.3544 65.2514 99.221 65.0858 99.0488C64.9203 98.8767 64.792 98.6696 64.7098 98.4416C64.3734 97.4263 65.1528 96.2232 66.4492 95.7539C67.7456 95.2846 69.0503 95.7283 69.4113 96.7522Z" fill="#802D28"/>
<path d="M69.0527 98.6127C69.0677 98.8489 69.0278 99.0854 68.9364 99.3022C68.845 99.519 68.7048 99.7098 68.5276 99.8584C68.0953 100.236 67.5632 100.468 67.0015 100.524C66.3894 100.615 65.7658 100.483 65.2374 100.149C65.0656 100.041 64.9191 99.8942 64.8084 99.72C64.6977 99.5459 64.6256 99.3484 64.5974 99.1417C64.4989 98.2287 65.4179 97.3755 66.6404 97.2305C67.863 97.0854 68.9871 97.7083 69.0527 98.6127Z" fill="#AC4B44"/>
<path d="M77.9653 89.9344L78.1068 89.5624C78.2209 89.2625 78.2158 88.9276 78.0926 88.6315C77.9693 88.3355 77.738 88.1025 77.4495 87.9837L77.0918 87.8365C76.8377 87.732 76.5662 87.6804 76.2929 87.685C76.0196 87.6895 75.7499 87.7499 75.499 87.8629C75.2482 87.9758 75.0212 88.139 74.8311 88.3431C74.6409 88.5473 74.4912 88.7884 74.3906 89.0527L74.2879 89.3227C74.1689 89.6469 74.1769 90.0066 74.3101 90.3248C74.4433 90.6429 74.6911 90.894 75.0004 91.0243L75.2601 91.1312C75.5142 91.2358 75.7857 91.2873 76.059 91.2828C76.3323 91.2783 76.602 91.2178 76.8529 91.1049C77.1037 90.992 77.3307 90.8287 77.5209 90.6246C77.711 90.4204 77.8607 90.1793 77.9613 89.9151L77.9653 89.9344Z" fill="#240F0F"/>
<path d="M87.5748 88.0321C88.5644 88.0135 89.5198 87.6521 90.2896 87.0051C90.1401 85.8291 88.7769 84.5681 87.2493 84.4577C85.5815 84.3399 81.2159 85.0456 80.9865 86.345C81.6584 87.254 85.8861 88.1678 87.5748 88.0321Z" fill="#552D24"/>
<ellipse cx="3.16102" cy="1.07934" rx="3.16102" ry="1.07934" transform="matrix(-1 0 0 1 109.054 139.298)" fill="#333333"/>
<path d="M99.7591 134.588C101.526 134.588 100.803 131.792 101.935 130.656C100.752 131.518 98.2383 131.513 97.1834 130.656C96.3132 131.385 95.2777 132.267 94.4292 133.009C94.2991 133.13 94.207 133.289 94.1649 133.465C94.1229 133.641 94.1327 133.827 94.1933 133.997C94.2538 134.167 94.3622 134.315 94.5044 134.42C94.6466 134.526 94.8159 134.584 94.9905 134.588H99.7591Z" fill="#333333"/>
<ellipse cx="3.16102" cy="1.07934" rx="3.16102" ry="1.07934" transform="matrix(-1 0 0 1 100.668 132.93)" fill="#333333"/>
<path d="M142.185 134.434C143.948 134.434 143.227 131.643 144.356 130.51C143.176 131.37 140.668 131.365 139.615 130.51C138.747 131.237 137.714 132.118 136.867 132.858C136.737 132.979 136.645 133.137 136.603 133.313C136.561 133.489 136.571 133.674 136.631 133.844C136.692 134.014 136.8 134.161 136.942 134.266C137.084 134.371 137.253 134.43 137.427 134.434H142.185Z" fill="#333333"/>
<ellipse cx="3.1543" cy="1.07704" rx="3.1543" ry="1.07704" transform="matrix(-1 0 0 1 143.094 132.779)" fill="#333333"/>
<path d="M151.109 140.872C152.871 140.872 152.151 138.081 153.279 136.948C152.099 137.808 149.591 137.803 148.538 136.948C147.67 137.675 146.637 138.556 145.79 139.296C145.66 139.417 145.568 139.575 145.526 139.751C145.484 139.927 145.494 140.112 145.555 140.282C145.615 140.452 145.723 140.599 145.865 140.704C146.007 140.809 146.176 140.868 146.35 140.872H151.109Z" fill="#333333"/>
<ellipse cx="3.1543" cy="1.07704" rx="3.1543" ry="1.07704" transform="matrix(-1 0 0 1 152.017 139.217)" fill="#333333"/>
</g>
<defs>
<clipPath id="clip0_701_3824">
<rect width="210" height="162" fill="white"/>
</clipPath>
</defs>
</svg>
